<?xml version="1.0" standalone="no"?>
<!DOCTYPE svg PUBLIC "-//W3C//DTD SVG 20010904//EN"
 "http://www.w3.org/TR/2001/REC-SVG-20010904/DTD/svg10.dtd">
<svg version="1.0" xmlns="http://www.w3.org/2000/svg"
 width="500.000000pt" height="500.000000pt" viewBox="0 0 500.000000 500.000000"
 preserveAspectRatio="xMidYMid meet">

<g transform="translate(0.000000,500.000000) scale(0.100000,-0.100000)"
fill="#000000" stroke="none">
<path d="M4190 2610 l0 -630 75 0 75 0 0 179 0 179 57 55 57 55 31 -41 c17
-23 93 -129 169 -234 l137 -193 90 0 c82 0 89 1 80 18 -5 9 -98 136 -205 282
l-195 265 177 172 177 172 -90 0 -90 1 -190 -185 c-104 -101 -193 -184 -197
-185 -5 0 -8 162 -8 360 l0 360 -75 0 -75 0 0 -630z"/>
<path d="M1350 3020 l0 -130 -120 0 -120 0 0 -60 0 -60 119 0 120 0 3 -307 c3
-290 4 -311 24 -354 45 -96 131 -129 336 -129 l128 0 0 60 0 60 -113 0 c-97 0
-119 3 -157 23 -66 33 -69 46 -69 370 l-1 277 170 0 170 0 0 60 0 60 -170 0
-170 0 0 130 0 130 -75 0 -75 0 0 -130z"/>
<path d="M446 3095 c-199 -51 -348 -221 -403 -460 -24 -109 -24 -340 1 -440
57 -225 200 -387 399 -451 73 -23 103 -27 275 -31 l192 -6 0 62 0 61 -157 0
c-99 0 -184 6 -226 15 -178 37 -304 163 -358 358 -19 68 -23 106 -22 217 1
212 44 340 150 451 79 83 151 113 268 114 101 0 139 -13 195 -68 45 -43 69
-103 77 -184 l6 -68 -38 37 c-99 98 -286 85 -381 -26 -109 -127 -121 -339 -27
-476 66 -94 158 -138 268 -127 63 6 100 24 143 68 l32 33 0 -42 0 -42 60 0 60
0 0 308 c0 169 -5 340 -10 381 -19 141 -90 246 -202 296 -77 35 -209 43 -302
20z m266 -455 c23 -7 50 -26 71 -51 111 -130 52 -372 -96 -394 -124 -19 -213
61 -224 200 -9 109 30 194 107 233 49 24 85 27 142 12z"/>
<path d="M2345 2895 c-33 -7 -86 -23 -117 -35 l-58 -21 0 -74 0 -74 65 30
c170 77 345 78 420 4 31 -32 55 -95 55 -148 l0 -25 -172 -5 c-198 -5 -265 -22
-337 -84 -60 -50 -83 -103 -89 -194 -8 -135 39 -223 146 -276 51 -25 68 -28
157 -28 87 0 107 3 156 26 31 15 75 46 97 70 l42 43 0 -62 0 -62 76 0 76 0 -4
343 c-4 296 -7 348 -22 390 -22 58 -86 125 -147 155 -87 42 -226 53 -344 27z
m361 -537 c-8 -90 -52 -186 -102 -224 -104 -80 -260 -68 -321 25 -28 42 -31
121 -5 170 38 76 109 99 301 100 l134 1 -7 -72z"/>
<path d="M3382 2894 c-69 -18 -100 -35 -139 -76 -45 -47 -63 -96 -63 -175 1
-152 59 -204 285 -258 112 -26 187 -61 205 -95 15 -29 12 -99 -7 -130 -37 -63
-149 -93 -266 -71 -33 6 -97 26 -143 44 l-84 34 0 -73 0 -73 65 -20 c224 -69
420 -48 525 58 53 54 70 100 70 194 0 152 -69 214 -291 261 -174 36 -209 61
-209 146 0 81 46 118 158 127 79 6 160 -7 242 -41 l60 -24 0 74 0 73 -41 11
c-120 33 -277 39 -367 14z"/>
</g>
</svg>
